<mxfile host="app.diagrams.net" agent="Mozilla/5.0 (Windows NT 10.0; Win64; x64) AppleWebKit/537.36 (KHTML, like Gecko) Chrome/133.0.0.0 Safari/537.36" version="26.0.15">
  <diagram name="Page-1" id="LPzst_-0_y2L3GmmsK-Y">
    <mxGraphModel dx="1050" dy="530" grid="1" gridSize="10" guides="1" tooltips="1" connect="1" arrows="1" fold="1" page="1" pageScale="1" pageWidth="827" pageHeight="1169" math="0" shadow="0">
      <root>
        <mxCell id="0" />
        <mxCell id="1" parent="0" />
        <mxCell id="NZNjvPo6IgJqye7zImyw-4" value="" style="html=1;verticalAlign=bottom;startArrow=circle;startFill=1;endArrow=open;startSize=6;endSize=8;curved=0;rounded=0;" edge="1" parent="1">
          <mxGeometry width="80" relative="1" as="geometry">
            <mxPoint x="190" y="220" as="sourcePoint" />
            <mxPoint x="190" y="300" as="targetPoint" />
          </mxGeometry>
        </mxCell>
        <mxCell id="NZNjvPo6IgJqye7zImyw-5" value="Début" style="text;html=1;align=center;verticalAlign=middle;resizable=0;points=[];autosize=1;strokeColor=none;fillColor=none;" vertex="1" parent="1">
          <mxGeometry x="160" y="188" width="60" height="30" as="geometry" />
        </mxCell>
        <mxCell id="NZNjvPo6IgJqye7zImyw-6" value="Utilisateur authentifié ?" style="ellipse;whiteSpace=wrap;html=1;" vertex="1" parent="1">
          <mxGeometry x="120" y="300" width="140" height="70" as="geometry" />
        </mxCell>
        <mxCell id="NZNjvPo6IgJqye7zImyw-7" value="Non" style="html=1;verticalAlign=bottom;endArrow=block;curved=0;rounded=0;" edge="1" parent="1">
          <mxGeometry width="80" relative="1" as="geometry">
            <mxPoint x="260" y="340" as="sourcePoint" />
            <mxPoint x="340" y="340" as="targetPoint" />
          </mxGeometry>
        </mxCell>
        <mxCell id="NZNjvPo6IgJqye7zImyw-8" value="Redirection vers la page de connexion" style="ellipse;whiteSpace=wrap;html=1;" vertex="1" parent="1">
          <mxGeometry x="340" y="310" width="140" height="70" as="geometry" />
        </mxCell>
        <mxCell id="NZNjvPo6IgJqye7zImyw-9" value="" style="ellipse;html=1;shape=endState;fillColor=#000000;strokeColor=#ff0000;" vertex="1" parent="1">
          <mxGeometry x="560" y="330" width="30" height="30" as="geometry" />
        </mxCell>
        <mxCell id="NZNjvPo6IgJqye7zImyw-10" value="Fin" style="html=1;verticalAlign=bottom;endArrow=block;curved=0;rounded=0;" edge="1" parent="1">
          <mxGeometry width="80" relative="1" as="geometry">
            <mxPoint x="480" y="344.5" as="sourcePoint" />
            <mxPoint x="560" y="344.5" as="targetPoint" />
          </mxGeometry>
        </mxCell>
        <mxCell id="NZNjvPo6IgJqye7zImyw-12" value="Oui" style="html=1;verticalAlign=bottom;endArrow=block;curved=0;rounded=0;" edge="1" parent="1">
          <mxGeometry width="80" relative="1" as="geometry">
            <mxPoint x="189.5" y="371" as="sourcePoint" />
            <mxPoint x="189.5" y="441" as="targetPoint" />
          </mxGeometry>
        </mxCell>
        <mxCell id="NZNjvPo6IgJqye7zImyw-13" value="Demande la liste des contacts" style="ellipse;whiteSpace=wrap;html=1;" vertex="1" parent="1">
          <mxGeometry x="120" y="440" width="140" height="70" as="geometry" />
        </mxCell>
        <mxCell id="NZNjvPo6IgJqye7zImyw-15" value="" style="html=1;verticalAlign=bottom;endArrow=block;curved=0;rounded=0;" edge="1" parent="1">
          <mxGeometry width="80" relative="1" as="geometry">
            <mxPoint x="189.5" y="510" as="sourcePoint" />
            <mxPoint x="189.5" y="580" as="targetPoint" />
          </mxGeometry>
        </mxCell>
        <mxCell id="NZNjvPo6IgJqye7zImyw-16" value="Envoi requête API GET /contacts" style="ellipse;whiteSpace=wrap;html=1;" vertex="1" parent="1">
          <mxGeometry x="120" y="579" width="140" height="70" as="geometry" />
        </mxCell>
        <mxCell id="NZNjvPo6IgJqye7zImyw-17" value="" style="html=1;verticalAlign=bottom;endArrow=block;curved=0;rounded=0;" edge="1" parent="1">
          <mxGeometry width="80" relative="1" as="geometry">
            <mxPoint x="189.5" y="649" as="sourcePoint" />
            <mxPoint x="189.5" y="719" as="targetPoint" />
          </mxGeometry>
        </mxCell>
        <mxCell id="NZNjvPo6IgJqye7zImyw-18" value="Récupération des contacts depuis la base de données" style="ellipse;whiteSpace=wrap;html=1;" vertex="1" parent="1">
          <mxGeometry x="120" y="718" width="140" height="70" as="geometry" />
        </mxCell>
        <mxCell id="NZNjvPo6IgJqye7zImyw-19" value="" style="html=1;verticalAlign=bottom;endArrow=block;curved=0;rounded=0;" edge="1" parent="1">
          <mxGeometry width="80" relative="1" as="geometry">
            <mxPoint x="189.5" y="788" as="sourcePoint" />
            <mxPoint x="189.5" y="858" as="targetPoint" />
          </mxGeometry>
        </mxCell>
        <mxCell id="NZNjvPo6IgJqye7zImyw-20" value="Retourner la liste des contacts en JSON" style="ellipse;whiteSpace=wrap;html=1;" vertex="1" parent="1">
          <mxGeometry x="120" y="857" width="140" height="70" as="geometry" />
        </mxCell>
        <mxCell id="NZNjvPo6IgJqye7zImyw-21" value="" style="html=1;verticalAlign=bottom;endArrow=block;curved=0;rounded=0;" edge="1" parent="1">
          <mxGeometry width="80" relative="1" as="geometry">
            <mxPoint x="189.5" y="927" as="sourcePoint" />
            <mxPoint x="189.5" y="997" as="targetPoint" />
          </mxGeometry>
        </mxCell>
        <mxCell id="NZNjvPo6IgJqye7zImyw-22" value="Afficher la liste des contacts à l&#39;utilisateur" style="ellipse;whiteSpace=wrap;html=1;" vertex="1" parent="1">
          <mxGeometry x="120" y="996" width="140" height="70" as="geometry" />
        </mxCell>
        <mxCell id="NZNjvPo6IgJqye7zImyw-23" value="" style="ellipse;html=1;shape=endState;fillColor=#000000;strokeColor=#ff0000;" vertex="1" parent="1">
          <mxGeometry x="340" y="1016" width="30" height="30" as="geometry" />
        </mxCell>
        <mxCell id="NZNjvPo6IgJqye7zImyw-24" value="Fin" style="html=1;verticalAlign=bottom;endArrow=block;curved=0;rounded=0;" edge="1" parent="1">
          <mxGeometry width="80" relative="1" as="geometry">
            <mxPoint x="260" y="1030.5" as="sourcePoint" />
            <mxPoint x="340" y="1030.5" as="targetPoint" />
          </mxGeometry>
        </mxCell>
      </root>
    </mxGraphModel>
  </diagram>
</mxfile>
